<svg width="122" height="23.5" viewBox="0 0 32.278 6.218" xmlns="http://www.w3.org/2000/svg"><path d="M29.91 2.11l2.13.31-1.542 1.503.364 2.121-1.905-1.001-1.906 1.001.364-2.121-1.541-1.503 2.13-.31.953-1.93zm-6.44 0l2.131.31-1.541 1.503.364 2.121-1.906-1.001-1.905 1.001.364-2.121-1.542-1.503 2.13-.31.953-1.93zm-6.425 0l2.13.31-1.541 1.503.364 2.121-1.905-1.001-1.906 1.001.364-2.121L13.01 2.42l2.13-.31.953-1.93zm-6.438 0l2.13.31-1.541 1.503.363 2.121-1.905-1.001L7.75 6.044l.364-2.121L6.57 2.42l2.13-.31.953-1.93zm-6.439 0l2.13.31-1.54 1.503.363 2.121-1.905-1.001L1.31 6.044l.364-2.121L.133 2.42l2.13-.31.953-1.93zM-.582-.53V6.8h33.426V-.53z" fill="#fff"/></svg>