<svg width="1976" height="1976" fill="none" xmlns="http://www.w3.org/2000/svg"><circle cx="988" cy="988" r="988"/><path d="M1175.08 946.152c0-7.506-9.83-9.633-31.62-10.759-218.277-11.885-251.908-53.044-294.481-118.224-5.416-8.632-10.958-7.506-10.958 3.378v252.463c0 9.88 5.542 12.01 10.958 3.25 42.573-65.05 76.078-106.213 294.481-118.098 21.79-1.125 31.62-3.377 31.62-12.01zm245.87 496.538a52.594 52.594 0 0 0 18.65-19.46 52.27 52.27 0 0 0 6.54-26.07l8.69-211.31c1.26-16.39-4.41-26.02-16.38-26.02-15.24 0-18.64 7.63-20.78 19.52-33.76 201.67-152.66 265.47-312.12 265.47-214.879 0-288.06-113.72-288.06-306.63 0-121.48-55.672-167.017-162.609-192.038 88.547-15.137 158.327-69.308 158.327-149.5V576.468c0-27.023 10.958-46.539 40.306-46.539h271.816c208.45 0 254.3 82.193 283.65 230.818 2.27 11.885 6.55 19.516 19.65 19.516 10.96 0 17.51-7.631 16.37-25.021l-9.82-236.323c-1.13-26.897-6.55-52.919-52.4-52.919H563.185c-16.374 0-21.79 5.38-21.79 15.138 0 14.137 17.507 16.263 39.298 23.77 36.023 12.01 84.013 26.147 84.013 82.444v189.784c0 125.73-80.612 145.246-194.225 158.257-29.348 3.253-30.481 6.506-30.481 10.759 0 5.505 1.133 8.758 30.481 12.01 113.613 13.011 187.801 32.653 187.801 158.388 0 244.95 145.101 393.45 439.708 393.45 175.59-.13 283.66-43.41 322.96-67.31z" fill="#999"/></svg>