<svg width="15" height="15" fill="none" xmlns="http://www.w3.org/2000/svg"><path d="M9.002 6.63c-.06.646-.675 1.213-1.502 1.213S6.057 7.276 5.998 6.63a.5.5 0 0 0-.996.092C5.116 7.96 6.24 8.842 7.5 8.842c1.26 0 2.384-.882 2.498-2.12a.5.5 0 0 0-.996-.092z" fill="#fff"/><path fill-rule="evenodd" clip-rule="evenodd" d="m4.114 3.292-.078.927a5.72 5.72 0 0 0-.2.021c-.533.067-.987.21-1.373.538-.386.327-.603.753-.762 1.27-.152.498-.264 1.135-.403 1.924l-.256 1.452C.849 10.52.694 11.395.67 12.088c-.025.714.083 1.326.502 1.832.419.507.998.724 1.7.825.678.098 1.557.098 2.655.098h3.946c1.098 0 1.977 0 2.655-.098.702-.101 1.281-.318 1.7-.825.419-.506.527-1.118.502-1.832-.024-.693-.178-1.568-.372-2.664l-.256-1.452c-.139-.79-.251-1.426-.403-1.924-.159-.517-.376-.943-.762-1.27-.386-.328-.84-.47-1.373-.538a5.756 5.756 0 0 0-.2-.021l-.078-.927a3.398 3.398 0 0 0-6.772 0zM7.5 1.176a2.398 2.398 0 0 0-2.39 2.199l-.067.803c.23-.002.474-.002.735-.002h3.444c.26 0 .506 0 .735.002l-.067-.803A2.398 2.398 0 0 0 7.5 1.176zM3.961 5.233c-.428.053-.668.152-.852.308-.183.156-.323.38-.451.8-.132.431-.235 1.008-.381 1.836l-.243 1.381c-.202 1.145-.343 1.95-.365 2.565-.02.6.078.924.273 1.16.194.234.488.388 1.072.472.6.086 1.406.088 2.554.088h3.864c1.148 0 1.955-.002 2.554-.088.584-.084.878-.238 1.072-.473.195-.236.293-.559.273-1.16-.022-.613-.163-1.42-.364-2.564l-.244-1.38c-.146-.83-.249-1.406-.38-1.838-.129-.42-.268-.643-.452-.8-.184-.155-.424-.254-.852-.307-.442-.056-1.02-.057-1.85-.057H5.811c-.832 0-1.409 0-1.851.057z" fill="#fff"/></svg>