<svg xmlns="http://www.w3.org/2000/svg" width="19.914" height="18.816"><g fill="#fff"><path d="m7.873 14.298-2.235 2.238a2.375 2.375 0 1 1-3.359-3.358L6.758 8.7a2.374 2.374 0 0 1 3.358 0 .792.792 0 0 0 1.12-1.12 3.958 3.958 0 0 0-5.6 0L1.16 12.059a3.96 3.96 0 0 0 5.6 5.6l2.237-2.243a.793.793 0 1 0-1.124-1.118z"/><path d="M18.755 1.159a3.959 3.959 0 0 0-5.6 0l-2.684 2.686a.792.792 0 1 0 1.116 1.12l2.69-2.686a2.375 2.375 0 0 1 3.359 3.358l-4.926 4.926a2.374 2.374 0 0 1-3.358 0 .792.792 0 1 0-1.12 1.12 3.958 3.958 0 0 0 5.6 0l4.926-4.926a3.958 3.958 0 0 0-.003-5.598z"/></g></svg>