<svg width="17" height="17" fill="none" xmlns="http://www.w3.org/2000/svg"><g clip-path="url(#a)"><path d="M10.5 3.193h-6c-.553 0-1.026.333-1.226.813l-2.014 4.7c-.06.154-.093.314-.093.487v1.333c0 .733.6 1.334 1.333 1.334h4.207l-.633 3.046-.02.213c0 .274.113.527.293.707l.707.7 4.393-4.393c.24-.24.387-.573.387-.94V4.526c0-.733-.6-1.333-1.334-1.333Zm0 8-2.893 2.893.893-3.56h-6V9.193l2-4.667h6v6.667Zm2.667-8h2.667v8h-2.667v-8Z" fill="#DE1616"/></g><defs><clipPath id="a"><path fill="#fff" transform="translate(.5 .526)" d="M0 0h16v16H0z"/></clipPath></defs></svg>