<svg width="17" height="17" fill="none" xmlns="http://www.w3.org/2000/svg"><g clip-path="url(#a)"><path d="M6.5 13.86h6c.554 0 1.027-.334 1.227-.814l2.013-4.7c.06-.153.094-.313.094-.486V6.526c0-.733-.6-1.333-1.334-1.333h-4.206l.633-3.047.02-.213c0-.273-.113-.527-.293-.707l-.707-.7L5.554 4.92c-.24.24-.387.573-.387.94v6.666c0 .734.6 1.334 1.333 1.334Zm0-8 2.894-2.894-.894 3.56h6V7.86l-2 4.666h-6V5.86Zm-5.333 0h2.667v8H1.167v-8Z" fill="#0DAB01"/></g><defs><clipPath id="a"><path fill="#fff" transform="translate(.5 .526)" d="M0 0h16v16H0z"/></clipPath></defs></svg>