<svg width="107" height="107" xmlns="http://www.w3.org/2000/svg"><g transform="translate(1 1)" fill="none" fill-rule="evenodd"><path d="M26 25.857h53V79H26z"/><path d="M33.484 33.047h-1.146a1.917 1.917 0 0 0-1.921 1.916v42.121c0 1.06.86 1.916 1.921 1.916h39.097a1.917 1.917 0 0 0 1.921-1.916v-42.12c0-1.06-.86-1.917-1.921-1.917h-1.146v-1.731a1.92 1.92 0 0 0-1.927-1.916H35.411a1.914 1.914 0 0 0-1.927 1.91v1.737zm3.067.657v-1.24h30.671v1.24H36.551z" fill="#B3B3B3"/><path d="M64.155 34.535V29.27c0-6.746-5.491-12.215-12.268-12.215-6.776 0-12.269 5.465-12.269 12.215v5.41c0 .84.688 1.522 1.534 1.522.847 0 1.533-.681 1.533-1.522v-5.4c0-5.06 4.12-9.16 9.202-9.16s9.201 4.1 9.201 9.16v5.401c0 .84.688 1.522 1.534 1.522.846 0 1.533-.681 1.533-1.522v-.146z" fill="#B3B3B3"/><circle stroke="#B2B2B2" stroke-width="2" stroke-linecap="round" stroke-linejoin="round" stroke-dasharray="5" cx="52.5" cy="52.5" r="52.5"/></g></svg>