<svg xmlns="http://www.w3.org/2000/svg" height="302" width="302"><path fill="#fff" d="M131.19 261.38c31.874 0 61.037-11.488 83.667-30.513l66.818 66.818c4.421 4.421 11.587 4.421 16.008 0 4.421-4.421 4.421-11.587 0-16.008l-66.82-66.82c19.025-22.63 30.513-51.793 30.513-83.666 0-71.906-58.28-130.19-130.19-130.19C59.288 1.001.996 59.286.996 131.191c0 71.9 58.291 130.19 130.19 130.19zm0-237.74c59.39 0 107.55 48.147 107.55 107.55 0 29.683-12.028 56.558-31.475 76.016-.011.011-.022.011-.034.023-.01.01-.01.022-.022.033-19.47 19.447-46.34 31.475-76.017 31.475-59.395 0-107.55-48.147-107.55-107.55 0-59.4 48.154-107.55 107.55-107.55z"/></svg>