<svg width="77" height="87" fill="none" xmlns="http://www.w3.org/2000/svg"><path d="M64.357 14.503c5.946-1.07 12.514-1.405 12.514-1.405l-3.092-2.602 1.16-4.56c-5.745 4.206-18.415 6.99-24.921 8.19 3.09-.747 7.005-2.16 7.478-3.78-.157-1.648-2.375-7.245-7.088-10.143-.27-.246-1.195-.157-2.944 1.468-1.323 1.23-4.567 6.3-7.447 9.328a3.7 3.7 0 0 0-4.185-.041c-2.885-3.021-6.173-8.151-7.504-9.39-1.75-1.625-2.677-1.713-2.945-1.467-4.714 2.901-6.93 8.494-7.088 10.143.295 1.01 1.925 1.94 3.86 2.678-6.74-1.47-15.66-3.911-20.216-7.246l1.158 4.56-3.09 2.604s7.59.386 13.839 1.657h-1.068A10.748 10.748 0 0 0 2.042 25.233v51.033A10.748 10.748 0 0 0 12.778 87h51.327a10.748 10.748 0 0 0 10.736-10.735V25.233a10.743 10.743 0 0 0-10.484-10.73zm8.135 61.763a8.4 8.4 0 0 1-8.39 8.39h-51.33a8.4 8.4 0 0 1-8.391-8.39V25.233a8.4 8.4 0 0 1 8.39-8.39H64.1a8.4 8.4 0 0 1 8.393 8.388v51.035z" fill="#C7A67C"/><path d="M61.024 22.2H15.847a6.08 6.08 0 0 0-6.08 6.08v44.938a6.08 6.08 0 0 0 6.08 6.08h45.177a6.08 6.08 0 0 0 6.08-6.08V28.279a6.08 6.08 0 0 0-6.08-6.08z" fill="#C7A67C"/><path fill-rule="evenodd" clip-rule="evenodd" d="M29.98 35.685c.133.021.572.597.572 1.712v9.69c-1.197 1.917-3.44 2.353-7.645 2.488a.596.596 0 0 0-.572.548v.089a.592.592 0 0 0 .572.639c4.2.132 6.445.593 7.645 2.515v9.261c0 .508-.072 1.692-.744 1.692a.858.858 0 0 0-.777.641.562.562 0 0 0-.031.189.826.826 0 0 0 .808.851h19.656a.592.592 0 0 0 .584-.495l.647-3.706a.826.826 0 0 0-.57-.913.604.604 0 0 0-.188-.03.826.826 0 0 0-.863.695s-.146.642-1.155 1.347c-.94.57-2.366.99-4.004.99h-9.096V52.872c1.33-1.58 3.693-1.946 7.893-2.043a.592.592 0 0 0 .579-.592v-.053a.59.59 0 0 0-.58-.592c-4.199-.098-6.561-.44-7.892-2.004v-11.45h9.084a9.351 9.351 0 0 1 2.73.418l.048.018c.047.019.094.037.141.058 2.033.89 2.233 1.912 2.233 1.912v.01a.825.825 0 0 0 .957.583c.566-.142.684-.52.684-.812a.665.665 0 0 0-.008-.1l-.647-3.73a.594.594 0 0 0-.584-.495H29.808a.858.858 0 0 0-.777.644.546.546 0 0 0-.031.186c0 .322.128.855.98.855zm2.53 19.563c-.657-2.945-2.002-4.368-4.667-5.043 2.655-.684 4.005-2.13 4.668-5.115.655 2.98 2 4.427 4.681 5.115-2.691.677-4.021 2.103-4.681 5.043z" fill="#fff"/></svg>