<svg width="24" height="18" fill="none" xmlns="http://www.w3.org/2000/svg"><path d="M23.077 2.13a9.443 9.443 0 0 1-2.617.718 4.516 4.516 0 0 0 1.998-2.51 9.076 9.076 0 0 1-2.88 1.1 4.54 4.54 0 0 0-7.856 3.106c0 .359.03.705.105 1.035C8.05 5.394 4.71 3.585 2.466.828a4.573 4.573 0 0 0-.622 2.296c0 1.573.81 2.967 2.017 3.774a4.485 4.485 0 0 1-2.052-.56v.05a4.563 4.563 0 0 0 3.639 4.463c-.37.101-.773.15-1.19.15a4.01 4.01 0 0 1-.86-.078c.588 1.799 2.258 3.121 4.243 3.164a9.126 9.126 0 0 1-5.631 1.937c-.372 0-.73-.017-1.087-.062A12.786 12.786 0 0 0 7.89 18c8.358 0 12.927-6.923 12.927-12.924 0-.2-.007-.395-.016-.587a9.06 9.06 0 0 0 2.276-2.358z" fill="#1DA1F2"/></svg>